<svg xmlns="http://www.w3.org/2000/svg" width="18" height="20" viewBox="0 0 18 20" fill="none"><path d="M3.50488 0H14.5049C14.8196 0 15.116 0.14819 15.3049 0.4L18.0049 4V19C18.0049 19.5523 17.5572 20 17.0049 20H1.00488C0.452603 20 0.00488281 19.5523 0.00488281 19V4L2.70488 0.4C2.89374 0.14819 3.19013 0 3.50488 0ZM16.0049 6H2.00488V18H16.0049V6ZM15.5049 4L14.0049 2H4.00488L2.50488 4H15.5049ZM6.00488 8V10C6.00488 11.6569 7.348 13 9.0049 13C10.6617 13 12.0049 11.6569 12.0049 10V8H14.0049V10C14.0049 12.7614 11.7663 15 9.0049 15C6.24346 15 4.00488 12.7614 4.00488 10V8H6.00488Z" fill="#525252"></path></svg>